<?xml version="1.0" standalone="no"?>
<!DOCTYPE svg PUBLIC "-//W3C//DTD SVG 1.1//EN" "http://www.w3.org/Graphics/SVG/1.1/DTD/svg11.dtd" >
<!--
2013-9-30: Created.
-->
<svg>
<metadata>
Created by iconfont
</metadata>
<defs>

<font id="iconfont" horiz-adv-x="1024" >
  <font-face
    font-family="iconfont"
    font-weight="500"
    font-stretch="normal"
    units-per-em="1024"
    ascent="896"
    descent="-128"
  />
    <missing-glyph />
    
    <glyph glyph-name="x" unicode="x" horiz-adv-x="1001"
d="M281 543q-27 -1 -53 -1h-83q-18 0 -36.5 -6t-32.5 -18.5t-23 -32t-9 -45.5v-76h912v41q0 16 -0.5 30t-0.5 18q0 13 -5 29t-17 29.5t-31.5 22.5t-49.5 9h-133v-97h-438v97zM955 310v-52q0 -23 0.5 -52t0.5 -58t-10.5 -47.5t-26 -30t-33 -16t-31.5 -4.5q-14 -1 -29.5 -0.5
t-29.5 0.5h-32l-45 128h-439l-44 -128h-29h-34q-20 0 -45 1q-25 0 -41 9.5t-25.5 23t-13.5 29.5t-4 30v167h911zM163 247q-12 0 -21 -8.5t-9 -21.5t9 -21.5t21 -8.5q13 0 22 8.5t9 21.5t-9 21.5t-22 8.5zM316 123q-8 -26 -14 -48q-5 -19 -10.5 -37t-7.5 -25t-3 -15t1 -14.5
t9.5 -10.5t21.5 -4h37h67h81h80h64h36q23 0 34 12t2 38q-5 13 -9.5 30.5t-9.5 34.5q-5 19 -11 39h-368zM336 498v228q0 11 2.5 23t10 21.5t20.5 15.5t34 6h188q31 0 51.5 -14.5t20.5 -52.5v-227h-327z" />
    

    
    <glyph glyph-name="duihua" unicode="&#58885;" d="M955.743942 611.906799c0 48.819892-5.469572 90.191138-62.942541 107.027595-72.015174 21.096481-399.995043 6.563486-518.40385 6.563486-47.357588 0-71.037916-24.39869-71.037916-48.795333 0-146.385998 0-268.375354 0-414.762375 0-48.793286 0.213871-92.076068 71.037916-97.589642 73.05076-5.688559 158.930709 3.130294 248.412696-7.448646 47.358611-48.795333 106.789165-114.540709 154.147776-163.335019 23.669072 48.795333 47.359634 121.989355 71.025637 170.784688 0 0 23.691585 0.067538 47.358611 0 53.082986-0.153496 62.089104 23.571858 62.089104 72.369238C957.431374 236.719768 955.743942 489.918467 955.743942 611.906799zM421.218926 507.440539c142.075833 0 283.620569 0 425.695379 0 0 0 1.069355 47.272653 1.069355 71.671343-142.074809 0-284.152688 0-426.228521 0 0-24.397666 0-48.794309 0-48.794309L421.218926 507.440539zM587.523579 383.930551c94.717222 0 165.743882 0 260.46008 0 0 24.396643 0 48.796356 0 73.191976-94.717222 0-165.743882 0-260.46008 0C587.523579 432.726907 587.523579 408.327194 587.523579 383.930551L587.523579 383.930551zM161.282778 17.964532c0-48.795333 0-121.987309 0-170.782641l0 0c23.681352 24.397666 165.756161 146.384975 165.756161 146.384975 47.357588 0 236.791008-24.397666 236.791008 48.795333 0 48.797379 0 73.194022-47.356564 73.194022-94.719268 0-236.794078 0-260.474406 24.397666 0 24.397666 0 195.182354 0 292.77302 0 24.396643 0 24.396643 0 48.795333 0 0-0.068562 22.584368-23.678282 24.396643-154.592914 11.869329-165.755138-48.795333-165.755138-73.191976 0-73.192999 0-268.375354 0-341.568353C66.56658 17.964532 113.924167 17.964532 161.282778 17.964532L161.282778 17.964532z"  horiz-adv-x="1024" />

    
    <glyph glyph-name="top" unicode="&#58941;" d="M512 502.64448 490.277888 480.922368 128.434176 119.077632 150.156288 97.35552 512 459.199232 873.843712 97.35552 895.565824 119.077632 533.722112 480.922368 533.722112 480.922368Z"  horiz-adv-x="1024" />

    
    <glyph glyph-name="tesefuwu" unicode="&#58921;" d="M511.609097-65.619254M511.508813-63.100898c-60.406788 0-119.013581 11.831466-174.192298 35.164894-53.289694 22.535249-101.146655 54.793954-142.240585 95.880721-41.094954 41.086767-73.359798 88.934518-95.89914 142.213979-23.338544 55.169507-35.172057 113.765043-35.172057 174.161598s11.833513 118.993115 35.172057 174.161598c22.540366 53.279461 54.80521 101.128235 95.89914 142.213979 41.09393 41.085744 88.950891 73.344448 142.240585 95.880721 55.178717 23.333428 113.784486 35.164894 174.192298 35.164894 60.406788 0 119.013581-11.831466 174.192298-35.164894 53.289694-22.535249 101.146655-54.794977 142.240585-95.880721 41.09393-41.086767 73.359798-88.934518 95.89914-142.213979 23.339568-55.168484 35.173081-113.765043 35.173081-174.161598 0-81.07041-21.915126-160.486134-63.375399-229.661633-3.52836-5.888104-11.165294-7.79964-17.050328-4.27128-5.888104 3.52836-7.79964 11.163247-4.27128 17.050328 39.146579 65.315588 59.838853 140.312676 59.838853 216.882586 0 233.002728-189.599196 422.564062-422.646949 422.564062-233.048777 0-422.646949-189.561333-422.646949-422.564062s189.598172-422.564062 422.646949-422.564062c85.523839 0 167.896918 25.402553 238.213403 73.463152 5.669116 3.872191 13.402241 2.417049 17.275455-3.247974 3.873214-5.668093 2.419096-13.402241-3.247974-17.275455C689.281659-36.199201 602.059132-63.100898 511.508813-63.100898zM704.238302 327.830723c22.607904 36.459377 35.901675 79.288834 35.901675 125.243469 0 131.522476-107.002013 238.520395-238.493789 238.520395-131.522476 0-238.547001-106.997919-238.547001-238.520395 0-52.791343 17.448394-101.456716 46.601364-141.014664l-86.571704-150.593833 93.673449-6.957459 53.234435-77.463256 82.004689 142.753261c16.036231-3.420913 32.599466-5.276167 49.608861-5.276167 23.195282 0 45.567825 3.477194 66.793242 9.695826l84.565001-147.172921 53.234435 77.463256 93.647867 6.957459L704.238302 327.830723 704.238302 327.830723zM422.179298 228.346941l-54.441936-94.708012-34.251082 49.874921-60.305481 4.481058 57.063647 99.305727c0.473791-0.500397 1.030469-0.886183 1.503237-1.385557 5.836939-5.92392 11.908214-11.613502 18.305925-16.888645 1.416256-1.151219 2.946099-2.15099 4.363378-3.272533 5.333472-4.185322 10.786671-8.192589 16.445554-11.938913 2.181689-1.442862 4.423753-2.681062 6.632047-4.036943 5.454222-3.329838 10.995425-6.484691 16.714683-9.373485 1.798972-0.943488 3.624551-1.798972 5.483898-2.651386 6.810103-3.241834 13.794168-6.16235 20.926612-8.756431C421.149852 228.790032 421.649226 228.524996 422.179298 228.346941L422.179298 228.346941zM448.237791 251.898333c-10.670014 2.829442-21.016663 6.458085-30.947849 10.81737-0.181125 0.090051-0.325411 0.151449-0.473791 0.207731-9.226129 4.098341-18.039865 8.961092-26.501584 14.32424-0.970094 0.621147-2.003634 1.181919-2.947122 1.798972-8.014534 5.245468-15.59314 11.169387-22.811542 17.509792-1.534959 1.355881-3.067872 2.738367-4.572132 4.154623-7.101745 6.601348-13.881149 13.616112-20.100804 21.281699-29.092595 35.842323-46.602388 81.443917-46.602388 131.080407 0 114.868167 93.469811 208.336956 208.364585 208.336956 114.869191 0 208.308303-93.468788 208.308303-208.336956 0-43.921325-13.707187-84.626399-36.993542-118.258381-5.215792-7.515161-10.991332-14.619976-17.153682-21.369703-1.355881-1.503237-2.651386-3.007497-4.036943-4.450359-6.866385-7.104815-14.179954-13.767562-21.960151-19.838837-0.825808-0.647753-1.681292-1.238201-2.5071-1.885953-17.066701-12.881378-36.050054-23.286356-56.32789-30.448476-1.030469-0.352017-2.033309-0.76441-3.064802-1.12052l-5.158487-1.798972c-19.334347-5.950526-39.851637-9.196453-61.104683-9.196453C483.166301 244.705514 465.304492 247.360993 448.237791 251.898333L448.237791 251.898333zM689.557952 183.51385l-34.251082-49.874921-58.06751 101.044324c8.136308 3.567245 16.002462 7.665587 23.638373 12.115945 0.973164 0.560772 1.915629 1.151219 2.859118 1.738597 6.453992 3.862981 12.673647 8.018627 18.687618 12.438287 1.620917 1.180895 3.212158 2.359744 4.77577 3.568269 5.186116 4.007267 10.139941 8.222265 14.973016 12.647041 1.886977 1.707898 3.77293 3.329838 5.598508 5.067412 4.510734 4.393054 8.756431 9.018398 12.884448 13.733792 1.413186 1.594311 3.034103 3.007497 4.389984 4.659113l64.790632-112.656803L689.557952 183.51385 689.557952 183.51385zM689.557952 183.51385M597.296665 309.021332l-18.300808 106.585527 77.463256 75.433016-107.028619 15.562441-47.753607 96.945983-47.897893-96.945983-107.055225-15.562441 77.489862-75.433016L405.939429 309.053054l95.707782 50.316989L597.296665 309.021332 597.296665 309.021332zM411.627988 469.992513l62.194504 9.021467 27.79709 56.328913 27.76639-56.328913 62.165852-9.021467-44.981471-43.830251 10.639315-61.899792-55.559387 29.240975-55.623855-29.27065 10.611685 61.930491L411.627988 469.992513 411.627988 469.992513zM411.627988 469.992513"  horiz-adv-x="1024" />

    
    <glyph glyph-name="weibiaoti1fuzhi-copy" unicode="&#58950;" d="M40.395 896h330.123l235.803-419.788h-282.96l-282.966 419.788zM512.183 431.937c-156.333 0-283.065-125.346-283.065-279.969 0-154.622 126.733-279.969 283.065-279.969s283.066 125.346 283.066 279.969c0 154.622-126.733 279.969-283.066 279.969zM603.81 0.427l-93.319 68.396-95.016-65.827 33.975 113.033-89.818 73.237 114.313 1.47 39.515 111.081 36.669-112.122 114.233-4.586-91.644-70.762 31.092-113.92zM606.32 896h377.285l-330.123-419.788-141.483 269.864 94.32 149.924z"  horiz-adv-x="1024" />

    
    <glyph glyph-name="lianheunited8" unicode="&#58912;" d="M461.792 98.112l-71.2 0 0 67.264c141.184 25.472 248.096 148.96 248.096 296.992 0 40.032-7.68 78.24-21.92 113.216-15.552 5.856-32.128 8.992-49.248 8.992-27.168 0-53.024-7.712-75.328-22.048 18.72-28.896 29.6-63.264 29.6-100.16 0-101.888-82.784-184.704-184.672-184.704-101.824 0-184.64 82.816-184.64 184.704 0 77.536 48.032 143.968 115.84 171.328 13.824 21.696 30.112 42.048 48.736 60.64 25.408 25.376 54.08 46.432 85.152 62.72-20.928 4.608-42.688 7.104-64.96 7.104-166.368 0-302.272-135.424-302.272-301.792 0-144.736 102.656-265.92 237.984-295.04l0-69.248L206.624 98.08c-32.352 0-58.592-26.528-58.592-58.816 0-32.352 26.24-58.88 58.592-58.88L272.96-19.616l0-46.752c0-32.288 26.496-58.528 58.816-58.528 32.352 0 58.816 26.24 58.816 58.528l0 46.752 71.2 0c32.352 0 58.528 26.528 58.528 58.88C520.32 71.584 494.112 98.112 461.792 98.112zM956.064 879.424c-2.688 0.128-187.072-1.984-187.072-1.984-32.8-0.384-59.168-32.512-58.688-65.408 0.384-32.576 26.944-63.872 59.424-63.872 0.192 0 0.512 0 0.768 0l34.368 5.664L742.272 693.76c-50.976 35.456-111.328 56.096-174.656 56.096-81.92 0-158.912-31.264-216.832-89.152C258.24 568.192 237.376 431.04 288 318.24c3.264-1.088 6.56-2.112 9.92-3.04 11.168-3.008 22.688-4.672 34.176-5.056 1.664-0.064 3.36-0.096 5.056-0.096 28.224 0 55.744 7.84 79.744 22.688-54.496 73.408-48.544 177.856 18.048 244.48 35.392 35.424 82.528 54.976 132.672 54.976 50.112 0 97.248-19.52 132.672-54.976 73.248-73.216 73.248-192.32 0-265.472-27.008-27.072-60.864-44.832-97.728-51.712-2.528-3.328-5.12-6.656-7.744-9.888-34.496-41.888-78.56-74.72-128.128-95.648 32.032-11.104 66.016-16.896 100.928-16.896 81.888 0 158.88 32.032 216.832 89.92 103.936 103.968 121.088 264.608 44.32 383.392l70.72 66.944 0-41.568c0-32.832 25.952-59.488 58.816-59.488 32.832 0 58.848 26.656 58.848 59.488L1017.152 820.416C1017.152 836.32 1014.464 875.808 956.064 879.424z"  horiz-adv-x="1024" />

    
    <glyph glyph-name="jiantou" unicode="&#58901;" d="M512.113587-64.438359c-6.737448 0-13.475919 2.572592-18.618033 7.723915-10.29139 10.293437-10.29139 26.974351 0 37.265742l263.312034 263.572978c10.286274 10.296507 26.950815 10.296507 37.237089 0 10.29139-10.293437 10.29139-26.974351 0-37.268812L530.73469-56.715467C525.589506-61.865767 518.851035-64.438359 512.113587-64.438359zM933.441495 357.274312 90.788749 357.274312c-14.543228 0-26.336832 11.806907-26.336832 26.358321 0 14.558577 11.793604 26.360368 26.336832 26.360368l779.073708 0L493.495554 786.712945c-10.29139 10.296507-10.29139 26.974351 0 37.270858 10.286274 10.296507 26.950815 10.296507 37.239136 0l421.324838-421.715741c7.53665-7.538697 9.798157-18.868743 5.706979-28.725228C953.705004 363.700675 944.085926 357.274312 933.441495 357.274312z"  horiz-adv-x="1024" />

    
    <glyph glyph-name="asterisk" unicode="&#59026;" d="M530.323 406.857c14.152 6.564 27.892 13.194 40.815 19.711 12.922 6.609 23.267 11.486 30.902 14.54 7.657 2.985 13.788 4.58 18.437 4.58 7.657 0 14.267-2.507 19.873-7.747 5.605-5.106 8.386-11.6 8.386-19.233 0-4.375-1.39-8.979-4.124-13.673-2.712-4.717-5.652-7.747-8.707-9.068-28.303-11.12-59.501-19.301-93.479-24.361 6.176-5.605 13.743-13.239 22.743-22.629 9-9.526 13.743-14.54 14.107-15.177 3.327-4.58 7.908-10.3 13.834-17.093 5.927-6.836 10.027-12.124 12.329-15.974 2.301-3.898 3.464-8.478 3.464-13.969 0-7.020-2.622-13.194-7.909-18.437-5.219-5.286-12.080-7.93-20.418-7.93s-17.661 6.518-28.144 19.415c-10.413 12.899-23.884 36.211-40.336 69.778-16.658-30.218-27.893-50.249-33.546-59.913-5.719-9.571-11.212-16.886-16.453-21.854-5.286-4.923-11.28-7.431-18.117-7.431-8.113 0-14.88 2.781-20.304 8.387-5.266 5.605-8.022 11.646-8.022 17.958 0 5.926 1.072 10.414 3.282 13.447 20.19 27.415 41.225 51.343 63.217 71.421-18.437 2.894-34.867 6.109-49.337 9.571-14.495 3.578-29.9 8.661-46.101 15.496-2.665 1.344-5.219 4.375-7.748 9.068-2.461 4.649-3.691 9.024-3.691 12.967 0 7.633 2.781 14.108 8.387 19.233 5.605 5.219 12.009 7.747 19.279 7.747 5.286 0 11.828-1.595 19.758-4.763 7.862-3.213 17.887-7.793 30.059-13.81 12.193-6.038 26.093-12.786 41.659-20.259-2.849 13.834-5.219 29.717-7.087 47.537-1.868 17.888-2.78 30.127-2.78 36.736 0 8.113 2.576 15.018 7.703 20.897 5.219 5.812 11.781 8.707 19.917 8.707 7.978 0 14.425-2.895 19.598-8.707 5.197-5.881 7.747-13.582 7.747-23.243 0-2.622-0.433-7.816-1.186-15.656-0.683-7.816-1.868-17.206-3.26-28.258-1.436-11.075-3.030-23.792-4.739-38.012z"  horiz-adv-x="1024" />

    
    <glyph glyph-name="zhuanyehuwai" unicode="&#58920;" d="M512-99.84c-65.29536 0-128.66432 12.8-188.34688 38.04416-57.62176 24.3712-109.36064 59.2512-153.7792 103.66976s-79.29856 96.15744-103.66976 153.7792C40.96 255.3344 28.16 318.70464 28.16 384c0 65.29536 12.8 128.6656 38.04416 188.34816 24.37248 57.62176 59.2512 109.36064 103.66976 153.77792 44.41856 44.41856 96.15744 79.29856 153.7792 103.66976C383.33568 855.04 446.70464 867.84 512 867.84c76.68992 0 150.05312-17.4336 218.05568-51.81696 25.2352-12.75904 35.34848-43.55968 22.58816-68.7936-12.76032-25.2352-43.5648-35.34464-68.7936-22.58816C630.30784 751.71328 572.48896 765.44 512 765.44c-210.32704 0-381.44-171.11296-381.44-381.44 0-210.32576 171.11296-381.44 381.44-381.44 210.32576 0 381.44 171.11424 381.44 381.44 0 90.11968-32.0064 177.57184-90.12352 246.24768-18.26688 21.58464-15.57632 53.89184 6.00832 72.15872 21.58464 18.2656 53.89312 15.57632 72.15872-6.0096 36.17664-42.74816 64.4096-90.91584 83.92064-143.16288C985.6 499.14496 995.84 442.20672 995.84 384c0-65.29536-12.8-128.6656-38.04416-188.34688-24.3712-57.62176-59.2512-109.36064-103.66976-153.7792-44.41728-44.41856-96.15616-79.29856-153.77792-103.66976C640.6656-87.04 577.29536-99.84 512-99.84zM768 433.92c0-5.54624 0-11.09376 0-16.64-0.34688-0.20096-0.93568-0.33664-1.0112-0.61184-5.52576-20.30336-10.9568-40.63232-16.51072-60.928-8.63744-31.55456-17.248-63.11936-26.07232-94.62144-9.2672-33.08288-15.42656-67.1104-29.50144-98.73664C688.91904 148.93312 681.7344 136.3072 666.88 130.56c-81.49248 0-162.98624 0-244.48 0 0.04352 2.1312 0.12416 4.2624 0.12416 6.3936 0.0064 115.81568 0.00512 231.63264 0.00512 347.44832 0 1.70624-0.33536 3.50592 0.10112 5.09312 0.44032 1.60384 1.27744 3.67744 2.5728 4.38144 18.06592 9.83424 32.92672 23.33056 45.93408 39.11424 17.54496 21.29024 31.86688 44.65024 38.00064 71.53536 5.61792 24.63232 8 49.99552 11.99744 75.00544 1.60384 10.04032 3.32672 20.58496 14.7136 24.37376 4.82048 1.60384 10.41152 1.248 15.64288 1.1712 10.7584-0.15616 19.49696-5.59744 26.30784-13.07392 11.5328-12.6656 16.85248-28.5696 21.2416-44.91648 5.824-21.69216 7.08608-43.93728 8.65664-66.09536 1.58848-22.40896 0.2944-44.86016-6.45504-66.46656-6.17216-19.75936-12.98048-39.40992-29.92512-55.13472 3.85536 0 6.11456 0 8.37504 0 49.05728 0 98.11456 0.096 147.17056-0.14976 4.83968-0.02432 9.8496-1.64992 14.47296-3.36384C752.6784 451.66848 761.4016 444.02304 768 433.92zM258.56 463.36c15.01312-4.4288 30.42816-4.06912 45.84576-4 25.76512 0.11392 51.5328 0.03072 78.18496 0.03072 0-3.06688 0-5.7472 0-8.42624 0-104.03072 0-208.06272 0.00512-312.09472 0-2.76864 0.08064-5.53856 0.12416-8.30848-34.98624 0-69.97376 0-104.96 0-10.70976 3.49568-15.70816 11.19872-16.72704 22.1248-0.27264 2.91584-1.6192 5.73312-2.47296 8.5952C258.56 261.97248 258.56 362.66752 258.56 463.36zM258.56 161.28c0.85376-2.86208 2.20032-5.67936 2.47296-8.5952 1.01888-10.92608 6.01856-18.62912 16.72704-22.1248-6.4 0-12.8 0-19.2 0C258.56 140.8 258.56 151.04 258.56 161.28z"  horiz-adv-x="1024" />

    
    <glyph glyph-name="kechengbiao" unicode="&#59070;" d="M246.314407 51.771363c0-26.376741-19.389606-47.76384-45.771463-47.76384l-49.241494 0c-26.374694 0-45.766346 21.386076-45.766346 47.76384l0 43.767829 140.77828 0L246.313384 51.771363zM105.535103 524.829446l140.77828 0 0-381.540739-140.77828 0 0 381.540739ZM246.314407 574.567243l-140.77828-1.496074 0 49.248657c0 26.37981 19.389606 47.7577 45.766346 47.7577l49.241494 0c26.375717 0 45.771463-21.37789 45.771463-47.7577L246.31543 574.567243zM487.067656 51.771363c0-26.376741-21.375843-47.76384-47.7577-47.76384l-98.489128 0c-26.370601 0-43.768853 21.386076-43.768853 47.76384l0 43.270503 190.015681 0L487.067656 51.771363zM487.067656 144.785803 297.051975 145.284153 297.051975 621.824547 487.067656 621.824547ZM487.067656 669.078781l-190.015681 1.490957 0 49.743938c0 26.370601 17.398252 47.759747 43.768853 47.759747l98.490152 0c26.380834 0 47.756677-21.389146 47.756677-47.759747L487.067656 669.078781 487.067656 669.078781zM773.588275 50.281429c0-26.381857-21.37175-47.76384-47.75156-47.76384L581.585333 2.517589c-26.374694 0-47.753607 21.381983-47.753607 47.76384L533.831726 621.824547c0 26.378787 21.381983 47.762817 47.753607 47.762817l144.251382 0c26.37981 0 47.75156-21.383006 47.75156-47.762817L773.588275 50.281429zM916.851143 50.281429c0-26.381857-18.391882-47.76384-44.773739-47.76384l-7.455809 0c-26.371624 0-42.786479 19.384489-42.786479 45.76737l0.00614 0L821.841256 142.792403l95.009887 1.990331L916.851143 50.281429 916.851143 50.281429zM916.851143 195.028091 821.835116 193.04083 821.835116 333.318714 916.851143 333.809901ZM916.851143 384.054235l-95.016027 0L821.835116 478.068446c0 26.369577 16.413831 49.743938 42.786479 49.743938l7.455809 0c26.372647 0 44.773739-21.38096 44.773739-47.747467L916.851143 384.054235zM872.077404 527.812383"  horiz-adv-x="1024" />

    
    <glyph glyph-name="guanbi" unicode="&#58945;" d="M515.48672-109.35296c-272.34304 0-493.15328 220.9024-493.15328 493.36832S243.13856 877.35296 515.48672 877.35296C787.8656 877.35296 1008.64 656.4864 1008.64 384.01536S787.8656-109.35296 515.48672-109.35296L515.48672-109.35296zM777.01632 602.05056l-43.59168 43.61728-217.93792-218.0352L297.54368 645.66272l-43.61728-43.61728 217.94304-218.0352-217.94304-218.0352 43.61728-43.61216 217.94304 218.03008 217.93792-218.03008 43.59168 43.61216-217.94304 218.0352L777.01632 602.05056 777.01632 602.05056z"  horiz-adv-x="1024" />

    
    <glyph glyph-name="yijin09-zinvruxue" unicode="&#58891;" d="M749.944211 479.095974c-86.724556-32.849194-171.725458-64.669701-186.550257-68.882503l-5.96914-1.723654c-13.713541-3.94789-27.924223-7.992111-45.418793-8.193376-0.412851 0-0.779257-0.065368-1.20931-0.065368-16.715313 0-33.580285 3.5488-54.687303 11.475543l-182.039857 68.416325V235.15768s104.998382-55.435595 237.93647-55.435595c132.922606 0 237.93819 55.435595 237.93819 55.435595V479.095974z m143.335057-19.620753v117.812251c17.702716 6.77076 28.355997 10.852826 28.355996 10.852826 19.830619 19.849542 19.830619 34.125592-0.034404 53.957932 0 0-337.015598 144.621776-373.630339 158.385204-36.613021 13.763427-46.793243 7.114802-71.932441 0.008601-25.104794-7.113082-373.654422-158.393805-373.654422-158.393805-19.847822-19.849542-19.847822-34.125592 0.025803-53.957932l373.628619-140.434777c33.977654-12.784626 44.190561-7.876857 71.932441-0.017202 20.055967 5.692186 207.032837 76.800645 308.64584 115.591456v-103.820036c-17.079998-7.171569-29.068165-24.046862-29.068166-43.726103v-24.191361c0-26.185088 21.225712-47.424562 47.424562-47.424561 26.166165 0 47.40908 21.241194 47.40908 47.424561v24.191361c0 19.693002-12.01397 36.576896-29.102569 43.741585z m-137.897463-340.443983h-486.751569c-43.578165 0-79.246788-35.651422-79.246788-79.229587v-1.061371c0-43.578165 35.668624-79.245068 79.246788-79.245069h486.751569c43.578165 0 79.246788 35.666904 79.246789 79.245069v1.061371c0.00172 43.578165-35.668624 79.229586-79.246789 79.229587z"  horiz-adv-x="1024" />

    
    <glyph glyph-name="39" unicode="&#59004;" d="M544.768 735.232c69.12 0 132.096-28.16 177.664-73.728s73.728-108.032 73.728-177.664c0-31.232-5.632-60.928-15.872-88.064l-9.728-14.336c-23.040-32.768-45.568-58.88-68.096-78.336v35.328l-6.144 2.048c14.336 15.36 26.624 32.768 35.84 51.712-4.608-3.072-9.728-5.632-15.36-8.192-15.872-7.68-34.304-14.848-53.76-19.968l-3.072-10.752c-91.136 31.232-172.544 33.28-244.224 14.336-15.36 4.608-29.184 10.24-41.984 16.896-5.12 2.56-10.24 5.12-15.36 8.192 6.144-12.8 13.824-25.088 22.528-35.84-13.824-5.12-27.136-11.264-40.448-17.92-29.184 40.96-46.080 91.136-46.080 145.408 0 69.12 28.16 132.096 73.728 177.664 44.544 45.056 107.008 73.216 176.64 73.216zM89.088-33.28l271.872 5.12 34.816 123.392 340.48 15.872 156.672 239.616-83.456 3.584c-104.96-150.016-205.312-168.448-359.424-126.464v13.312c123.904-21.504 177.152-8.192 203.776 15.872v48.128c-287.232 103.936-455.68-110.080-564.736-338.432zM750.080 471.040h-72.192c-0.512-19.968-2.048-39.424-5.12-58.368 8.704 3.072 16.896 6.656 24.576 10.24 27.648 13.824 46.592 30.72 52.736 48.128zM634.88 471.040h-70.144v-78.336c22.016 1.024 43.008 3.584 62.464 7.168 4.096 22.528 6.656 46.080 7.68 71.168zM525.824 471.040h-71.168c0.512-25.088 3.584-49.152 7.68-70.656 19.968-4.096 40.96-6.656 63.488-7.68v78.336zM411.136 471.040h-72.192c6.144-17.408 25.6-34.304 52.736-47.616 7.68-3.584 15.872-7.168 24.576-10.24-2.56 18.432-4.608 37.888-5.12 57.856zM346.112 509.952h66.048c1.024 15.872 2.56 30.72 4.608 45.568-8.704-3.072-16.896-6.656-24.576-10.24-20.992-10.24-36.864-22.528-46.080-35.328zM455.168 509.952h70.656v65.536c-22.528-1.024-43.52-3.584-63.488-7.68-3.584-17.92-6.144-37.376-7.168-57.856zM564.736 509.952h69.632c-1.024 20.48-3.584 39.936-7.168 58.368-19.456 4.096-40.448 6.656-62.464 7.168v-65.536zM677.376 509.952h66.048c-9.216 12.8-25.088 24.576-46.080 34.816-7.68 3.584-15.872 7.168-24.576 10.24 2.048-14.336 3.584-29.184 4.608-45.056zM564.736 686.592v-67.584c16.896-0.512 33.792-2.048 49.664-4.608-3.072 8.192-6.144 15.872-9.728 23.040-11.776 23.040-25.6 40.448-39.936 49.152zM525.824 619.008v68.096c-14.848-8.192-29.184-25.6-40.96-50.176-3.584-7.168-6.656-14.848-9.728-23.040 16.384 2.56 33.28 4.096 50.688 5.12zM426.496 603.648c5.12 18.944 11.776 36.864 19.456 52.224 2.56 5.632 5.632 10.752 8.704 15.872-21.504-10.24-40.448-24.064-56.832-40.448-16.384-16.384-29.696-34.816-39.936-55.808 4.608 3.072 9.728 5.632 15.36 8.192 15.36 7.68 33.792 14.848 53.248 19.968zM634.368 671.744c3.072-5.12 5.632-10.24 8.704-15.872 7.68-15.36 14.336-33.28 19.456-52.224 19.968-5.632 37.888-12.288 53.76-19.968 5.12-2.56 10.24-5.12 15.36-8.192-10.24 20.992-23.552 39.424-39.936 55.808s-35.84 30.208-57.344 40.448z"  horiz-adv-x="1024" />

    
    <glyph glyph-name="bofang" unicode="&#58909;" d="M540.032 825.024c-245.952 0-446.016-200.064-446.016-446.016s200.064-446.016 446.016-446.016 446.016 200.064 446.016 446.016-200.064 446.016-446.016 446.016zM540.032-3.008c-210.624 0-382.016 171.392-382.016 382.016s171.392 382.016 382.016 382.016 382.016-171.392 382.016-382.016-171.392-382.016-382.016-382.016zM417.152 252.16c0-35.2 24.96-49.6 55.424-32l219.584 126.784c30.528 17.6 30.528 46.4 0 64l-219.584 126.848c-30.528 17.6-55.424 3.2-55.424-32v-253.632z"  horiz-adv-x="1024" />

    
    <glyph glyph-name="bofang1" unicode="&#58889;" d="M211.404266 676.961406c0 47.299562 33.514625 66.650187 74.477703 42.999813l542.464-313.191406c40.963062-23.649312 40.963062-62.350375 0-85.999625L285.883 7.577875c-40.963094-23.649938-74.477891-4.299625-74.477891 42.999687L211.405109 676.961406 211.404266 676.961406 211.404266 676.961406z"  horiz-adv-x="1024" />

    
    <glyph glyph-name="hezuoguanxi-xianxing" unicode="&#59560;" d="M768.8 704c35.2 0 64-28.8 64-64s-28.8-64-64-64-64 28.8-64 64 28.8 64 64 64m-513.6 0c35.2 0 64-28.8 64-64s-28.8-64-64-64-64 28.8-64 64 28.8 64 64 64M768 384c35.2 0 64-28.8 64-64v-256H704V320c0 35.2 28.8 64 64 64m-512 0c35.2 0 64-28.8 64-64v-256H192V320c0 35.2 28.8 64 64 64m512.8 384c-70.4 0-128-57.6-128-128s57.6-128 128-128 128 57.6 128 128-57.6 128-128 128z m-513.6 0c-70.4 0-128-57.6-128-128s57.6-128 128-128 128 57.6 128 128-56.8 128-128 128zM768 448c-70.4 0-128-57.6-128-128v-51.2l-128.8-74.4L384 268v48.8c0 62.4-43.2 117.6-104 128.8-80.8 15.2-152-47.2-152-125.6v-288c0-17.6 14.4-32 32-32h192c17.6 0 32 14.4 32 32V194.4l110.4-64c0.8 0 0.8-0.8 1.6-0.8 4.8-3.2 10.4-4 16-4s10.4 1.6 16 4l112 65.6V32c0-17.6 14.4-32 32-32h192c17.6 0 32 14.4 32 32V320c0 70.4-57.6 128-128 128z"  horiz-adv-x="1024" />

    
    <glyph glyph-name="hezuoguanxi" unicode="&#59561;" d="M127.2 640c0 70.4 57.6 128 128 128s128-57.6 128-128-57.6-128-128-128-128 57.6-128 128z m641.6-128c70.4 0 128 57.6 128 128s-57.6 128-128 128-128-57.6-128-128 56.8-128 128-128z m0-64c-70.4 0-128-57.6-128-128v-51.2L512 194.4l-128 74.4V320c0 70.4-57.6 128-128 128s-128-57.6-128-128v-288c0-17.6 14.4-32 32-32h192c17.6 0 32 14.4 32 32V194.4l110.4-64c0.8 0 0.8-0.8 1.6-0.8 9.6-5.6 21.6-6.4 32 0l112.8 65.6V32c0-17.6 14.4-32 32-32h192c17.6 0 32 14.4 32 32V320c0 70.4-57.6 128-128 128z"  horiz-adv-x="1024" />

    
    <glyph glyph-name="caidan" unicode="&#58940;" d="M0.837818 820.781683c0-19.642164 8.098902-39.191237 21.969435-53.06177 13.963624-13.963624 33.512697-22.062525 53.247951-22.062525a76.055204 76.055204 0 0 1 53.06177 21.969434c13.963624 13.963624 22.062525 33.512697 22.062526 53.154861A76.055204 76.055204 0 0 1 129.303156 874.029635 76.055204 76.055204 0 0 1 76.055204 895.999069a76.055204 76.055204 0 0 1-53.247951-21.969434A76.706839 76.706839 0 0 1 0.837818 820.781683M0.837818 419.839502c0-19.642164 8.005811-39.377419 21.969435-53.247952 13.963624-13.963624 33.419606-21.969435 53.247951-21.969434a76.241385 76.241385 0 0 1 53.154861 21.969434 75.962113 75.962113 0 0 1 21.969435 53.247952 76.241385 76.241385 0 0 1-21.969435 53.154861 75.962113 75.962113 0 0 1-53.154861 21.969434 76.241385 76.241385 0 0 1-53.247951-21.969434 75.962113 75.962113 0 0 1-21.969435-53.154861M0.837818 18.80423c0-19.642164 8.005811-39.284328 21.969435-53.247951 13.963624-13.963624 33.419606-21.969435 53.247951-21.969435a76.241385 76.241385 0 0 1 53.154861 21.969435 75.962113 75.962113 0 0 1 21.969435 53.247951 76.241385 76.241385 0 0 1-21.969435 53.247952 75.962113 75.962113 0 0 1-53.154861 21.969434 76.241385 76.241385 0 0 1-53.247951-21.969434 76.520658 76.520658 0 0 1-21.969435-53.247952M1304.109361 820.781683c0-41.518508-32.395607-75.124295-72.331571-75.124295H373.945843c-40.029055 0-72.331571 33.512697-72.331571 75.124295C301.521181 862.486372 333.916788 895.999069 373.945843 895.999069h857.831947c40.029055 0 72.331571-33.605788 72.331571-75.217386M1231.77779 344.622116H373.945843c-40.029055 0-72.331571 33.605788-72.331571 75.217386 0 41.518508 32.302516 75.124295 72.331571 75.124295h857.831947c40.029055 0.186182 72.331571-33.512697 72.331571-75.124295 0-41.425417-32.395607-75.217386-72.331571-75.217386zM1304.109361 18.897321c0-41.611599-32.395607-75.310477-72.331571-75.310477H373.945843c-40.029055 0-72.331571 33.698878-72.331571 75.310477 0 41.425417 32.302516 75.124295 72.331571 75.124295h857.831947c40.029055 0.093091 72.331571-33.698878 72.331571-75.124295"  horiz-adv-x="1305" />

    
    <glyph glyph-name="jiangpai" unicode="&#58894;" d="M511.998 632.254c-194.04 0-348.127-154.09-348.127-348.125C163.87 90.09 317.958-64 511.998-64s348.124 154.09 348.124 348.13c0 194.035-154.084 348.125-348.124 348.125z m176.918-313.886l-68.488-68.482 17.13-97.02c5.704-34.243-11.417-45.66-39.95-28.532l-85.61 45.654-85.603-45.654c-28.54-17.128-45.654 0-39.95 28.532l17.116 97.02-68.474 68.482c-22.835 22.827-17.13 45.66 17.115 51.365l91.309 11.411 39.948 85.603c11.423 28.54 34.25 28.54 51.366 0l39.95-85.603 97.02-11.411c34.243-11.416 45.66-28.538 17.121-51.365zM860.122 792.05c5.712 5.704 5.712 11.415 5.712 11.415 0 11.412-11.417 22.821-22.827 22.821H626.14c-11.416 0-22.827-5.705-22.827-17.115l-68.488-125.553s142.681-5.71 228.284-91.314l97.013 199.746zM489.171 683.619L420.69 814.878c0 11.41-11.417 17.122-22.834 17.122H186.7c-17.123 0-28.535-11.417-28.535-22.827 0-5.706 0-11.417 5.705-11.417l97.023-199.744c85.603 74.192 228.277 85.607 228.277 85.607z"  horiz-adv-x="1024" />

    
    <glyph glyph-name="asterisk1" unicode="&#58880;" d="M730.24 319.36L603.52 387.2l126.08 67.84c20.48 10.88 28.8 37.12 17.28 57.6-10.88 20.48-37.12 28.8-57.6 17.28l-133.12-71.04V610.56a42.88 42.88 0 0 1-85.76 0v-151.68l-133.76 71.68c-20.48 10.88-46.72 3.2-57.6-17.28-10.88-20.48-3.2-46.72 17.28-57.6l126.08-67.84L296.32 320c-20.48-10.88-28.8-37.12-17.28-57.6 10.88-20.48 37.12-28.8 57.6-17.28L470.4 316.79999999999995v-151.68a42.88 42.88 0 0 1 85.76 0v150.4l133.76-71.68c20.48-10.88 46.72-3.2 57.6 17.28 10.88 21.12 3.2 47.36-17.28 58.24z"  horiz-adv-x="1024" />

    
    <glyph glyph-name="shangsheng" unicode="&#58987;" d="M186.4 343.1c17.1-12.9 38.6-12.9 51.4 0 12.9 17.1 12.9 38.6 0 51.4-12.9 12.9-34.3 12.9-51.4 0-12.9-12.9-12.9-34.3 0-51.4zM213.7 323.5c-11.2 0-23 3.9-33.3 11.6l-1.1 0.9-0.9 1.1c-15.8 21-15.4 48.2 0.9 64.5l0.5 0.5 0.6 0.4c21 15.8 48.2 15.4 64.5-0.9 16.3-16.3 16.7-43.4 0.9-64.5l-0.4-0.6-0.5-0.5c-8.4-8.3-19.5-12.5-31.2-12.5z m-20.2 26.7c12.6-8.8 27.7-9 36.7-0.6 9.3 12.9 9.6 28.7 0.5 37.7-9.1 9.1-24.8 8.8-37.7-0.5-8.5-8.9-8.2-24 0.5-36.6zM374.2 519.1c17.1-12.9 38.6-12.9 51.4 0 12.9 17.1 12.9 38.6 0 51.4-12.9 12.9-34.3 12.9-51.4 0-12.9-12.8-12.9-34.2 0-51.4zM401.5 499.6c-11.2 0-23 3.9-33.3 11.6l-1.2 0.8-0.9 1.1c-15.8 21-15.4 48.2 0.9 64.5l0.5 0.5 0.6 0.4c21 15.8 48.2 15.4 64.5-0.9 16.3-16.3 16.7-43.4 0.9-64.5l-0.4-0.6-0.5-0.5c-8.3-8.3-19.4-12.4-31.1-12.4z m-20.2 26.7c12.6-8.8 27.7-9 36.7-0.6 9.3 12.9 9.6 28.7 0.5 37.7-9.1 9.1-24.8 8.8-37.7-0.5-8.5-8.9-8.2-24 0.5-36.6zM173.5 233.8h96.4v-115.7h-96.4zM279.9 108.1H163.5V243.8h116.4v-135.7z m-96.4 20h76.4v95.7h-76.4v-95.7zM366.3 426.6h96.4v-308.5h-96.4zM472.7 108.1H356.3V436.6h116.4v-328.5z m-96.4 20h76.4V416.6h-76.4v-288.5zM539.8 330.2h96.4v-212.1h-96.4zM646.2 108.1H529.8V340.2h116.4v-232.1z m-96.4 20h76.4V320.2h-76.4v-192.1zM732.6 561.6H829v-443.4h-96.4zM839 108.1H722.6V571.6H839v-463.5z m-96.4 20H819V551.6h-76.4v-423.5zM867.6 118.1H135M135 128.1h732.6v-20H135zM572 439.5c17.1-12.9 38.6-12.9 51.4 0 12.9 17.1 12.9 38.6 0 51.4-12.9 12.9-34.3 12.9-51.4 0-12.9-12.9-12.9-34.3 0-51.4zM599.3 419.9c-11.2 0-23 3.9-33.3 11.6l-1.1 0.9-0.9 1.1c-15.8 21-15.4 48.2 0.9 64.5l0.5 0.5 0.6 0.4c21 15.8 48.2 15.4 64.5-0.9 16.3-16.3 16.7-43.4 0.9-64.5l-0.4-0.6-0.5-0.5c-8.4-8.3-19.5-12.5-31.2-12.5z m-20.2 26.7c12.6-8.8 27.7-9 36.7-0.6 9.3 12.9 9.6 28.7 0.5 37.7-9.1 9.1-24.8 8.8-37.7-0.5-8.5-8.9-8.2-24 0.5-36.6zM764.8 651.6c17.1-12.9 38.6-12.9 51.4 0 12.9 17.1 12.9 38.6 0 51.4-12.9 12.9-34.3 12.9-51.4 0-12.9-12.9-12.9-34.3 0-51.4zM792.1 632c-11.2 0-23 3.9-33.3 11.6l-1.1 0.9-0.9 1.1c-15.8 21-15.4 48.2 0.9 64.5l0.5 0.5 0.6 0.4c21 15.8 48.2 15.4 64.5-0.9 16.3-16.3 16.7-43.4 0.9-64.5l-0.4-0.6-0.5-0.5c-8.4-8.3-19.5-12.5-31.2-12.5z m-20.2 26.7c12.6-8.8 27.7-9 36.7-0.6 9.3 12.9 9.6 28.7 0.5 37.7-9.1 9.1-24.8 8.8-37.7-0.5-8.5-8.9-8.2-24 0.5-36.6zM790.5 677.3M443.4 542.3l115.7-57.8M439 533.348l8.945 17.888 115.645-57.823-8.944-17.888zM250.6 388.1M242.6 382.1l16 12zM250.6 388.1L366.3 523M243.097 394.545l115.647 134.927 15.186-13.016L258.283 381.53zM624.7 486.4l134.9 173.5M616.78 492.513l134.935 173.51 15.788-12.278-134.935-173.51z"  horiz-adv-x="1024" />

    
    <glyph glyph-name="shenduxuexi" unicode="&#58886;" d="M134.9 6.9c-111.1 111.1-26.2 366 181 573.2S778 872.3 889.1 761.1s26.2-366-181-573.2-462.1-292.2-573.2-181zM165 37c88.8-88.8 320.2-11.7 512.9 181S947.8 642.2 859 731s-320.2 11.7-512.9-181S76.2 125.8 165 37z m432.3 349.1c4.2-50-1.2-90.6-17-121.8-17.5-34.6-47.2-56.7-87.5-65.4-50.6-11-112.3 9.7-186.3 61 12.6-14.1 25.8-28.1 39.6-41.9C538.8 25.4 770.2-51.8 859 37c61.2 61.2 43.6 190.1-36.3 327.3l-4.3-4.5c-124.4 119.8-218 171.6-277 158.9-28-6.1-47-20.1-58.5-42.9-2.2-4.3-4.1-8.9-5.7-13.8 10.6 4.8 22.4 7.4 34.8 7.4 46.4-0.1 84.2-37.1 85.3-83.3z m-46.2-78c-11.7-6-25-9.4-39.1-9.4-40.6 0-74.6 28.4-83.2 66.4h-0.2c-0.1 0.5-0.1 1.1-0.2 1.6-1.1 5.6-1.8 11.4-1.8 17.3 0 1.6 0 3.3 0.1 4.9-1.9 42.9 3.9 78.2 18 106.1 17.5 34.6 47.2 56.7 87.5 65.4 54.4 11.8 121.7-13 203.2-73.2-17.9 21.2-37.1 42.2-57.7 62.8C485.2 742.6 253.8 819.8 165 731c-62.1-62.1-43-194 40-333.5l1.8 1.9c124.4-119.6 217.9-171.5 276.9-158.8 28 6.1 47 20.1 58.5 42.9 3.7 7.3 6.6 15.5 8.9 24.6z m338-301.2c-111.1-111.1-366-26.2-573.2 181S23.7 650 134.9 761.1s366 26.2 573.2-181 292.2-462.1 181-573.2zM512 341.3c23.6 0 42.7 19.1 42.7 42.7s-19.1 42.7-42.7 42.7-42.7-19.1-42.7-42.7 19.1-42.7 42.7-42.7z"  horiz-adv-x="1024" />

    
    <glyph glyph-name="tuandui" unicode="&#59232;" d="M860.3 110.6c-27.5 0-49.8 22.3-49.8 49.8s22.3 49.8 49.8 49.8c22 0 24.9 13.3 24.9 24.9 0 27.2-18.1 49.8-24.9 49.8h-74.6c-27.5 0-49.8 22.3-49.8 49.8s22.3 49.8 49.8 49.8h74.6c74.4 0 124.4-77.2 124.4-149.3s-52.3-124.6-124.4-124.6zM599.1 210.1c48 0 87.1-39.1 87.1-87.1 0-48-39.1-87.1-87.1-87.1H225.9c-48 0-87.1 39.1-87.1 87.1 0 48 39.1 87.1 87.1 87.1h373.2m0 99.5H225.9c-103.1 0-186.6-83.5-186.6-186.6 0-103 83.5-186.6 186.6-186.6h373.2c103 0 186.6 83.5 186.6 186.6s-83.6 186.6-186.6 186.6zM400 496.2c-47.4 0-95.4 21.4-95.4 62.2 0 20.6 16.7 37.3 37.3 37.3 14.7 0 27.4-8.5 33.5-20.8 11-3.9 38.2-3.9 49.2 0 6.1 12.3 18.8 20.8 33.5 20.8 20.6 0 37.3-16.7 37.3-37.3 0-40.8-48-62.2-95.4-62.2zM741.3 434c-8.8 0-17.7 0.7-26.4 2.1-27.1 4.4-45.6 29.9-41.2 57.1 4.4 27.1 29.9 45.7 57.1 41.2 3.4-0.6 6.9-0.9 10.5-0.9 38.2 0 69.2 33.5 69.2 74.6s-31.1 74.6-69.2 74.6c-5.8 0-11.6-0.8-17.1-2.3-26.4-7.3-53.9 8.3-61.2 34.8-7.3 26.5 8.3 53.9 34.8 61.2 14.1 3.9 28.7 5.8 43.4 5.8 93 0 168.7-78.1 168.7-174.1S834.4 434 741.3 434zM400.1 732.5c75.4 0 136.8-61.4 136.8-136.8s-61.4-136.8-136.8-136.8-136.8 61.4-136.8 136.8 61.3 136.8 136.8 136.8m0 99.6c-130.5 0-236.3-105.8-236.3-236.3s105.8-236.3 236.3-236.3 236.3 105.8 236.3 236.3S530.6 832.1 400.1 832.1z"  horiz-adv-x="1024" />

    
    <glyph glyph-name="zhuanqu-" unicode="&#58884;" d="M307.5 236.5v74.7c0 110 90 200 200 200h85.7c110 0 200-90 200-200v-74.7c0-64.6-52.8-117.4-117.4-117.4H424.9c-64.6 0-117.4 52.9-117.4 117.4zM303.5 226.6V328.1c0 100.7 88.9 183.1 197.6 183.1 108.7 0 193.6-82.4 193.6-183.1v-101.5c0-59.1-48.2-107.5-112-107.5H419.5c-63.8 0-116 48.4-116 107.5zM421.2 568.5c31.3-14.1 62.2-12.5 117.2-12.6 52 0 87.3-2.4 116 12.6 14.1 7.4 38.4 26.6 43.3 43.7 12.8 44.5-0.9 86.6-30.6 94.1-17.4 4.3-60.8-10-84.4-9.5-27.2 0.5-9.2 13.4-38.5 13.4-32.5 0-48.1-30.5-78.4-31.5-26.9-0.8-39.6 20.8-58.7 16-29.7-7.4-40.8-39.4-28.1-83.9 4.8-16.5 28-36 42.2-42.3zM404.1 574.7c25.4-13.7 50.4-12.2 94.9-12.2 42.2 0 70.8-2.3 94 12.2 11.4 7.2 31.1 25.8 35.1 42.5 10.4 43.3-0.7 84.2-24.8 91.4-14.1 4.2-22.8-20.8-41.9-20.3-22 0.5-34.8 31.9-58.5 31.9-26.3 0-42.5-27.8-67-28.7-21.8-0.8-30.5 8-46 3.4-24-7.2-30.3-35.8-19.9-79.1 3.8-16 22.6-34.9 34.1-41.1zM530 547.2c-5.8 0-11.8 0-18 0.1-6.4 0-13 0.1-20 0.1h-16c-49.5-0.1-82.2-0.2-115.4 13.7-7.1 3-15.5 8-23.5 14.2-6.6 5-7.8 14.5-2.8 21 5 6.6 14.5 7.8 21 2.8 5.8-4.5 12.1-8.3 16.8-10.3 27.6-11.6 56.2-11.5 103.7-11.4h16c7 0 13.7 0 20.1-0.1 42.9-0.3 73.9-0.4 97.6 11.1 15.2 7.4 35.4 24.2 38.7 34.7 6.9 22.4 5.8 44.8-2.9 59.9-4.7 8.2-11.1 13.3-18.9 15.1-2.5 0.6-6.6-2.1-12.9-6.5-9.2-6.4-21.7-15.1-39.3-14.8-18.7 0.3-32.8 10.1-45.2 18.6-11 7.6-20.5 14.2-31.9 14.2-12.7 0-22.6-7.9-34-16.9-13-10.3-27.7-21.9-48.4-22.5-20.4-0.6-34 10.5-44 18.6-6.4 5.2-10.7 8.5-13.3 7.9-14.4-3.4-20.7-17.1-23.2-25.1-2.2-7-3.2-14.8-3.1-23.2 0.2-8.7 1.7-17.7 4.4-26.7 2.4-7.9-2-16.3-9.9-18.7-7.9-2.4-16.3 2-18.7 9.9-3.6 11.7-5.5 23.4-5.8 34.9-0.2 11.7 1.2 22.7 4.4 32.9 7.5 23.8 23.9 40.4 45 45.3 17.1 4 29.3-5.9 39-13.9 9.3-7.6 15.5-12.1 24.1-11.9 10.8 0.3 20 7.6 30.6 16.1 13.9 11 29.6 23.4 52.7 23.4 20.8 0 35.8-10.4 49-19.5 10.2-7.1 19-13.2 28.7-13.3 7.9-0.1 14.3 4.3 21.6 9.4 9.4 6.6 21.2 14.8 36.9 11.1 16-3.7 29.2-13.9 38.1-29.4 13-22.6 15-53.1 5.6-83.7-7-22.6-36.9-44.4-54.2-52.8-25.7-12.8-54.7-14.3-92.6-14.3zM570.7 285H439.5c-6.7 0-12.1 5.4-12.1 12.1 0 6.7 5.4 12.1 12.1 12.1h131.2c6.7 0 12.1-5.4 12.1-12.1 0-6.7-5.4-12.1-12.1-12.1zM589.4 359.3L548 297.4c-2.4-3.7-8.6-5.9-13.6-4.9-8.3 1.7-11.8 8-7.8 14l41.3 61.9c2.4 3.7 8.6 5.9 13.6 4.9 8.4-1.6 11.9-7.9 7.9-14zM521 291.2v-82c0-7.1-5.8-12.9-12.9-12.9-7.1 0-12.9 5.8-12.9 12.9v82c0 7.1 5.8 12.9 12.9 12.9 7.1 0.1 12.9-5.8 12.9-12.9zM429.9 359.3l41.3-61.9c2.4-3.7 8.6-5.9 13.6-4.9 8.3 1.7 11.8 8 7.8 14l-41.3 61.9c-2.4 3.7-8.6 5.9-13.6 4.9-8.4-1.6-11.9-7.9-7.8-14zM570.7 240H439.5c-6.7 0-12.1 5.4-12.1 12.1 0 6.7 5.4 12.1 12.1 12.1h131.2c6.7 0 12.1-5.4 12.1-12.1 0-6.7-5.4-12.1-12.1-12.1zM348.1 347.4c-7.1 0-13.4 5.1-14.7 12.3-2.6 14.3 0.5 36.6 29.9 61.8 6.3 5.4 15.8 4.7 21.2-1.6 5.4-6.3 4.7-15.8-1.6-21.2-8.4-7.2-22.1-21.1-19.9-33.7 1.5-8.2-3.9-16-12.1-17.4-1-0.2-1.9-0.2-2.8-0.2zM400.4 424.5c-2.1 0-4.2 0.4-6.2 1.4-7.5 3.5-10.8 12.4-7.4 19.9 0.6 1.4 1 2.2 1 2.2 3.6 7.4 12.6 10.5 20.1 6.9 7.4-3.6 10.5-12.6 6.9-20 0-0.1-0.3-0.6-0.7-1.5-2.5-5.7-8-8.9-13.7-8.9zM629.3 111.8h-272c-71.6 0-129.8 54.9-129.8 122.5V335.8c0 33.4 9.1 66.6 26.4 95.8 4.2 7.1 13.4 9.5 20.5 5.3s9.5-13.4 5.3-20.5c-14.5-24.6-22.2-52.4-22.2-80.5v-101.5c0-51 44.8-92.5 99.8-92.5h272c55 0 99.8 41.5 99.8 92.5v31.3c0 8.3 6.7 15 15 15s15-6.7 15-15v-31.3c0.1-67.6-58.2-122.6-129.8-122.6zM744.2 285.4c-8.3 0-15 6.7-15 15v0.9c0 8.3 6.7 15 15 15s15-6.7 15-15v-0.9c0-8.3-6.8-15-15-15zM744.2 322.9c-8.3 0-15 6.7-15 15 0 91.5-81 166-180.6 166H438.1c-38.1 0-74.7-11.1-105.7-32-10.6-7.1-20.3-15.4-29.1-24.5-5.7-6-15.2-6.2-21.2-0.4-6 5.7-6.2 15.2-0.4 21.2 10.2 10.6 21.6 20.2 33.9 28.5 36 24.3 78.3 37.1 122.5 37.1h110.5c55.9 0 108.6-20.1 148.3-56.7 40.2-37 62.3-86.5 62.3-139.3 0-8.2-6.8-14.9-15-14.9zM987.4 6.6H967c-8.3 0-15 6.7-15 15s6.7 15 15 15h20.4c8.3 0 15-6.7 15-15s-6.8-15-15-15zM917.4 6.6H484.1c-8.3 0-15 6.7-15 15s6.7 15 15 15h433.2c8.3 0 15-6.7 15-15s-6.6-15-14.9-15zM515.8 6.6H253.3c-8.3 0-15 6.7-15 15s6.7 15 15 15h262.4c8.3 0 15-6.7 15-15s-6.6-15-14.9-15zM154.3 6.6H36.6c-8.3 0-15 6.7-15 15s6.7 15 15 15h117.7c8.3 0 15-6.7 15-15s-6.7-15-15-15zM74.9 576.9c-0.8 0-1.5 0.7-1.5 1.5v38.7c0 0.8 0.7 1.5 1.5 1.5s1.5-0.7 1.5-1.5v-38.7c0-0.9-0.6-1.5-1.5-1.5zM62.9 582.2c-0.4 0-0.7 0.1-1 0.4-0.6 0.6-0.7 1.5-0.1 2.1l25.1 27.4c0.6 0.6 1.5 0.7 2.1 0.1 0.6-0.6 0.7-1.5 0.1-2.1L64 582.7c-0.3-0.3-0.7-0.5-1.1-0.5zM88.1 582.5c-0.4 0-0.8 0.2-1.1 0.5l-25.1 27.4c-0.6 0.6-0.5 1.6 0.1 2.1 0.6 0.6 1.6 0.5 2.1-0.1L89.2 585c0.6-0.6 0.5-1.6-0.1-2.1-0.3-0.2-0.7-0.4-1-0.4zM92.7 596.2H57.1c-0.8 0-1.5 0.7-1.5 1.5s0.7 1.5 1.5 1.5h35.6c0.8 0 1.5-0.7 1.5-1.5s-0.7-1.5-1.5-1.5zM141.2 415h-7.4c-1.4 0-2.5 1.1-2.5 2.5s1.1 2.5 2.5 2.5h7.4c1.4 0 2.5-1.1 2.5-2.5s-1.1-2.5-2.5-2.5zM117.4 415H110c-1.4 0-2.5 1.1-2.5 2.5s1.1 2.5 2.5 2.5h7.4c1.4 0 2.5-1.1 2.5-2.5s-1.1-2.5-2.5-2.5zM119.7 421.2c-0.7 0-1.3 0.3-1.8 0.8l-5.3 5.7c-0.9 1-0.9 2.6 0.2 3.5 1 0.9 2.6 0.9 3.5-0.2l5.3-5.7c0.9-1 0.9-2.6-0.2-3.5-0.5-0.4-1.1-0.6-1.7-0.6zM137.7 402.8c-0.7 0-1.3 0.3-1.8 0.8l-5.3 5.7c-0.9 1-0.9 2.6 0.2 3.5 1 0.9 2.6 0.9 3.5-0.2l5.3-5.7c0.9-1 0.9-2.6-0.2-3.5-0.4-0.4-1.1-0.6-1.7-0.6zM132.5 421.7c-0.6 0-1.2 0.2-1.7 0.7-1 0.9-1.1 2.5-0.2 3.5l5.3 5.7c0.9 1 2.5 1.1 3.5 0.2 1-0.9 1.1-2.5 0.2-3.5l-5.3-5.7c-0.5-0.6-1.1-0.9-1.8-0.9zM125.8 422c-1.4 0-2.5 1.1-2.5 2.5v8.1c0 1.4 1.1 2.5 2.5 2.5s2.5-1.1 2.5-2.5v-8.1c0-1.4-1.1-2.5-2.5-2.5zM125.8 398.8c-1.4 0-2.5 1.1-2.5 2.5v8.1c0 1.4 1.1 2.5 2.5 2.5s2.5-1.1 2.5-2.5v-8.1c0-1.3-1.1-2.5-2.5-2.5zM114.6 402.9c-0.6 0-1.2 0.2-1.7 0.7-1 0.9-1.1 2.5-0.2 3.5l5.3 5.7c0.9 1 2.5 1.1 3.5 0.2 1-0.9 1.1-2.5 0.2-3.5l-5.3-5.7c-0.4-0.6-1.1-0.9-1.8-0.9zM152.8 616.6h-4.2c-3.1 0-5.7 2.5-5.7 5.7v1c0 3.1 2.5 5.7 5.7 5.7h4.2c3.1 0 5.7-2.5 5.7-5.7v-1c-0.1-3.2-2.6-5.7-5.7-5.7zM111.2 294.6c-2.5 0-4.5 2-4.5 4.5v0.8c0 2.5 2 4.5 4.5 4.5s4.5-2 4.5-4.5v-0.8c0-2.5-2-4.5-4.5-4.5zM77.7 486.6c-7.3 0-13.2 6-13.2 13.2v2.4c0 7.3 6 13.2 13.2 13.2 7.3 0 13.2-6 13.2-13.2v-2.4c0.1-7.3-5.9-13.2-13.2-13.2zM934 440.8h-6.2c-5.4 0-9.8 4.4-9.8 9.8v1.3c0 5.4 4.4 9.8 9.8 9.8h6.2c5.4 0 9.8-4.4 9.8-9.8v-1.3c0-5.4-4.4-9.8-9.8-9.8z m-6.2 15.9c-2.6 0-4.8-2.2-4.8-4.8v-1.3c0-2.6 2.2-4.8 4.8-4.8h6.2c2.6 0 4.8 2.2 4.8 4.8v1.3c0 2.6-2.2 4.8-4.8 4.8h-6.2zM884.3 510.6c-0.8 0-1.5 0.7-1.5 1.5v23.4c0 0.8 0.7 1.5 1.5 1.5s1.5-0.7 1.5-1.5v-23.4c0-0.8-0.7-1.5-1.5-1.5zM877 513.9c-0.4 0-0.7 0.1-1 0.4-0.6 0.6-0.7 1.5-0.1 2.1l15.2 16.6c0.6 0.6 1.5 0.7 2.1 0.1 0.6-0.6 0.7-1.5 0.1-2.1l-15.2-16.6c-0.3-0.3-0.7-0.5-1.1-0.5zM892.3 514.1c-0.4 0-0.8 0.2-1.1 0.5L876 531.1c-0.6 0.6-0.5 1.6 0.1 2.1 0.6 0.6 1.6 0.5 2.1-0.1l15.2-16.6c0.6-0.6 0.5-1.6-0.1-2.1-0.3-0.2-0.7-0.3-1-0.3zM895.1 522.3h-21.5c-0.8 0-1.5 0.7-1.5 1.5s0.7 1.5 1.5 1.5h21.5c0.8 0 1.5-0.7 1.5-1.5s-0.7-1.5-1.5-1.5zM936.5 354.4h-7.4c-1.4 0-2.5 1.1-2.5 2.5s1.1 2.5 2.5 2.5h7.4c1.4 0 2.5-1.1 2.5-2.5s-1.1-2.5-2.5-2.5zM912.7 354.4h-7.4c-1.4 0-2.5 1.1-2.5 2.5s1.1 2.5 2.5 2.5h7.4c1.4 0 2.5-1.1 2.5-2.5s-1.1-2.5-2.5-2.5zM915 360.5c-0.7 0-1.3 0.3-1.8 0.8l-5.3 5.7c-0.9 1-0.9 2.6 0.2 3.5 1 0.9 2.6 0.9 3.5-0.2l5.3-5.7c0.9-1 0.9-2.6-0.2-3.5-0.5-0.3-1.1-0.6-1.7-0.6zM933 342.2c-0.7 0-1.3 0.3-1.8 0.8l-5.3 5.7c-0.9 1-0.9 2.6 0.2 3.5 1 0.9 2.6 0.9 3.5-0.2l5.3-5.7c0.9-1 0.9-2.6-0.2-3.5-0.5-0.4-1.1-0.6-1.7-0.6zM927.8 361.1c-0.6 0-1.2 0.2-1.7 0.7-1 0.9-1.1 2.5-0.2 3.5l5.3 5.7c0.9 1 2.5 1.1 3.5 0.2s1.1-2.5 0.2-3.5l-5.3-5.7c-0.5-0.6-1.1-0.9-1.8-0.9zM921.1 361.3c-1.4 0-2.5 1.1-2.5 2.5v8.1c0 1.4 1.1 2.5 2.5 2.5s2.5-1.1 2.5-2.5v-8.1c0-1.4-1.1-2.5-2.5-2.5zM921.1 338.2c-1.4 0-2.5 1.1-2.5 2.5v8.1c0 1.4 1.1 2.5 2.5 2.5s2.5-1.1 2.5-2.5v-8.1c0-1.4-1.1-2.5-2.5-2.5zM909.9 342.3c-0.6 0-1.2 0.2-1.7 0.7-1 0.9-1.1 2.5-0.2 3.5l5.3 5.7c0.9 1 2.5 1.1 3.5 0.2 1-0.9 1.1-2.5 0.2-3.5l-5.3-5.7c-0.4-0.6-1.1-0.9-1.8-0.9zM872.9 272.6h-4.3c-1.2 0-2.1 1-2.1 2.1v0.4c0 1.2 1 2.1 2.1 2.1h4.3c1.2 0 2.1-1 2.1-2.1v-0.4c0.1-1.2-0.9-2.1-2.1-2.1zM874.2 387.9h-9.3c-4 0-7.2 3.2-7.2 7.2v0.8c0 4 3.2 7.2 7.2 7.2h9.3c4 0 7.2-3.2 7.2-7.2v-0.8c-0.1-4-3.3-7.2-7.2-7.2z m-9.4 10.2c-1.2 0-2.2-1-2.2-2.2v-0.8c0-1.2 1-2.2 2.2-2.2h9.3c1.2 0 2.2 1 2.2 2.2v0.8c0 1.2-1 2.2-2.2 2.2h-9.3zM862.6 600.3a6.3 5.7 90 1 1 11.4 0 6.3 5.7 90 1 1-11.4 0Z"  horiz-adv-x="1024" />

    
    <glyph glyph-name="yuyannengli" unicode="&#58892;" d="M455.6 139.8l0.1 74.6c0 14.1 11.6 25.7 25.8 25.7l114.4-0.2c14.1 0 25.7-11.6 25.7-25.8l-0.1-74.6c0-14.1-11.6-25.7-25.8-25.7l-114.4 0.2c-14.1 0-25.7 11.6-25.7 25.8zM455.6 139.7l0.1 74.6c0 14.1 11.6 25.7 25.8 25.7l40.3-0.1c14.1 0 25.7-11.6 25.7-25.8l-0.1-74.6c0-14.1-11.6-25.7-25.8-25.7l-40.3 0.1c-14.1 0.1-25.7 11.7-25.7 25.8zM338 380.6V671.8c0 49.2 40.3 89.5 89.5 89.5h259.7c49.2 0 89.5-40.3 89.5-89.5v-291.2c0-49.2-40.3-89.5-89.5-89.5H427.5c-49.2 0-89.5 40.3-89.5 89.5zM326.1 380.6V671.8c0 49.2 40.3 89.5 89.5 89.5h146.2c49.2 0 89.5-40.3 89.5-89.5v-291.2c0-49.2-40.3-89.5-89.5-89.5H415.6c-49.2 0-89.5 40.3-89.5 89.5zM392.8 623.5c-8.3 0-15 6.7-15 15 0 26 22.1 58.4 24.6 62 4.8 6.8 14.1 8.4 20.9 3.7 6.8-4.7 8.4-14.1 3.7-20.9-7.4-10.7-19.2-32.3-19.2-44.8 0-8.3-6.8-15-15-15zM620.2 276.1H355.7c-62.4 0-113.2 53.4-113.2 119v140c0 8.3 6.7 15 15 15s15-6.7 15-15v-140c0-49.1 37.3-89 83.2-89h264.6c45.9 0 83.2 39.9 83.2 89 0 8.3 6.7 15 15 15s15-6.7 15-15c-0.1-65.6-50.9-119-113.3-119zM718.4 443.4c-8.3 0-15 6.7-15 15v30.2c0 8.3 6.7 15 15 15s15-6.7 15-15v-30.2c0-8.3-6.7-15-15-15zM718.4 534c-8.3 0-15 6.7-15 15V657.3c0 49.1-37.3 89-83.2 89H355.7c-45.9 0-83.2-39.9-83.2-89v-50.2c0-8.3-6.7-15-15-15s-15 6.7-15 15v50.2c0 65.6 50.8 119 113.2 119h264.6c62.4 0 113.2-53.4 113.2-119V549c-0.1-8.3-6.8-15-15.1-15zM557.4 111.3l-116.7 0.2c-11.7 0-22.6 4.8-30.8 13.5-8 8.5-12.3 19.6-12.3 31.4l0.1 45.3c0 24.7 19.4 44.8 43.2 44.8l116.7-0.2c13.8 0 26.9-7 35.1-18.8 5.3-7.7 8.1-16.7 8.1-26.2l-0.1-45.3c-0.2-24.6-19.5-44.7-43.3-44.7zM440.8 216.6c-7.2 0-13.2-6.8-13.2-14.8l-0.1-45.3c0-4.1 1.5-7.9 4.2-10.8 2.5-2.6 5.7-4.1 9-4.1l116.7-0.2v-15 15c7.1 0 13.2 6.8 13.2 14.8l0.1 45.3c0 3.3-1 6.4-2.8 9.1-2.6 3.7-6.4 5.8-10.4 5.8l-116.7 0.2zM748.7 217.8c-8.3 0-15 6.7-15 15s6.7 15 15 15c33.1 0 61 17.7 61 38.7V400c0 8.3 6.7 15 15 15s15-6.7 15-15v-113.5c0-19.3-10.2-37.2-28.6-50.2-16.9-12-39.1-18.5-62.4-18.5zM693.3 217.8H242.9c-21.6 0-42.2 6.1-57.8 17.1-17 12-26.7 29.1-26.7 47 0 8.3 6.7 15 15 15s15-6.7 15-15c0-18.5 25-34.1 54.5-34.1h450.4c8.3 0 15-6.7 15-15s-6.7-15-15-15zM173.4 314.5c-8.3 0-15 6.7-15 15v66.9c0 8.3 6.7 15 15 15s15-6.7 15-15v-66.9c0-8.3-6.7-15-15-15zM391.7 385.3c-8.3 0-15 6.7-15 15V546.7c0 8.3 6.7 15 15 15s15-6.7 15-15v-146.4c0-8.3-6.8-15-15-15zM990.9 27.8h-20.4c-8.3 0-15 6.7-15 15s6.7 15 15 15h20.4c8.3 0 15-6.7 15-15s-6.8-15-15-15zM920.9 27.8H487.6c-8.3 0-15 6.7-15 15s6.7 15 15 15h433.2c8.3 0 15-6.7 15-15s-6.6-15-14.9-15zM519.3 27.8H256.8c-8.3 0-15 6.7-15 15s6.7 15 15 15h262.4c8.3 0 15-6.7 15-15s-6.6-15-14.9-15zM157.8 27.8H40.1c-8.3 0-15 6.7-15 15s6.7 15 15 15h117.7c8.3 0 15-6.7 15-15s-6.7-15-15-15zM97.6 465.6h-6.2c-5.4 0-9.8 4.4-9.8 9.8v1.3c0 5.4 4.4 9.8 9.8 9.8h6.2c5.4 0 9.8-4.4 9.8-9.8v-1.3c0-5.4-4.4-9.8-9.8-9.8z m-6.2 15.9c-2.6 0-4.8-2.2-4.8-4.8v-1.3c0-2.6 2.2-4.8 4.8-4.8h6.2c2.6 0 4.8 2.2 4.8 4.8v1.3c0 2.6-2.2 4.8-4.8 4.8h-6.2zM64.4 545.5H57c-1.4 0-2.5 1.1-2.5 2.5s1.1 2.5 2.5 2.5h7.4c1.4 0 2.5-1.1 2.5-2.5s-1.1-2.5-2.5-2.5zM40.6 545.5h-7.4c-1.4 0-2.5 1.1-2.5 2.5s1.1 2.5 2.5 2.5h7.4c1.4 0 2.5-1.1 2.5-2.5s-1.1-2.5-2.5-2.5zM42.9 551.6c-0.7 0-1.3 0.3-1.8 0.8l-5.3 5.7c-0.9 1-0.9 2.6 0.2 3.5 1 0.9 2.6 0.9 3.5-0.2l5.3-5.7c0.9-1 0.9-2.6-0.2-3.5-0.5-0.4-1.1-0.6-1.7-0.6zM60.9 533.3c-0.7 0-1.3 0.3-1.8 0.8l-5.3 5.7c-0.9 1-0.9 2.6 0.2 3.5s2.6 0.9 3.5-0.2l5.3-5.7c0.9-1 0.9-2.6-0.2-3.5-0.5-0.4-1.1-0.6-1.7-0.6zM55.6 552.2c-0.6 0-1.2 0.2-1.7 0.7-1 0.9-1.1 2.5-0.2 3.5l5.3 5.7c0.9 1 2.5 1.1 3.5 0.2 1-0.9 1.1-2.5 0.2-3.5l-5.3-5.7c-0.4-0.7-1.1-0.9-1.8-0.9zM49 552.4c-1.4 0-2.5 1.1-2.5 2.5V563c0 1.4 1.1 2.5 2.5 2.5s2.5-1.1 2.5-2.5v-8.1c0-1.4-1.1-2.5-2.5-2.5zM49 529.3c-1.4 0-2.5 1.1-2.5 2.5v8.1c0 1.4 1.1 2.5 2.5 2.5s2.5-1.1 2.5-2.5v-8.1c0-1.4-1.1-2.5-2.5-2.5zM37.8 533.4c-0.6 0-1.2 0.2-1.7 0.7-1 0.9-1.1 2.5-0.2 3.5l5.3 5.7c0.9 1 2.5 1.1 3.5 0.2 1-0.9 1.1-2.5 0.2-3.5l-5.3-5.7c-0.5-0.7-1.1-0.9-1.8-0.9zM86.6 404.5c-2.5 0-4.5 2-4.5 4.5v0.8c0 2.5 2 4.5 4.5 4.5s4.5-2 4.5-4.5v-0.8c0-2.5-2-4.5-4.5-4.5zM151.5 668.3h-4.3c-2 0-3.6 1.6-3.6 3.6v0.4c0 2 1.6 3.6 3.6 3.6h4.3c2 0 3.6-1.6 3.6-3.6v-0.4c0.1-2-1.6-3.6-3.6-3.6z m-4.2 4.6c-0.3 0-0.6-0.3-0.6-0.6v-0.4c0-0.3 0.3-0.6 0.6-0.6h4.3c0.3 0 0.6 0.3 0.6 0.6v0.4c0 0.3-0.3 0.6-0.6 0.6h-4.3zM103.2 622.3h-9.3c-4 0-7.2 3.2-7.2 7.2v0.8c0 4 3.2 7.2 7.2 7.2h9.3c4 0 7.2-3.2 7.2-7.2v-0.8c-0.1-4-3.3-7.2-7.2-7.2z m-9.4 10.1c-1.2 0-2.2-1-2.2-2.2v-0.8c0-1.2 1-2.2 2.2-2.2h9.3c1.2 0 2.2 1 2.2 2.2v0.8c0 1.2-1 2.2-2.2 2.2h-9.3zM909 617.4h-6.2c-5.4 0-9.8 4.4-9.8 9.8v1.3c0 5.4 4.4 9.8 9.8 9.8h6.2c5.4 0 9.8-4.4 9.8-9.8v-1.3c0-5.4-4.4-9.8-9.8-9.8z m-6.1 15.9c-2.6 0-4.8-2.2-4.8-4.8v-1.3c0-2.6 2.2-4.8 4.8-4.8h6.2c2.6 0 4.8 2.2 4.8 4.8v1.3c0 2.6-2.2 4.8-4.8 4.8h-6.2zM879.2 555.8c-0.8 0-1.5 0.7-1.5 1.5v27.4c0 0.8 0.7 1.5 1.5 1.5s1.5-0.7 1.5-1.5v-27.4c0-0.8-0.7-1.5-1.5-1.5zM870.7 559.6c-0.4 0-0.7 0.1-1 0.4-0.6 0.6-0.7 1.5-0.1 2.1l17.8 19.3c0.6 0.6 1.5 0.7 2.1 0.1 0.6-0.6 0.7-1.5 0.1-2.1l-17.8-19.3c-0.3-0.3-0.7-0.5-1.1-0.5zM888.5 559.8c-0.4 0-0.8 0.2-1.1 0.5l-17.8 19.3c-0.6 0.6-0.5 1.6 0.1 2.1s1.6 0.5 2.1-0.1l17.8-19.3c0.6-0.6 0.5-1.6-0.1-2.1-0.3-0.2-0.7-0.4-1-0.4zM891.7 569.5h-25.1c-0.8 0-1.5 0.7-1.5 1.5s0.7 1.5 1.5 1.5h25.1c0.8 0 1.5-0.7 1.5-1.5s-0.6-1.5-1.5-1.5zM916.3 429.6c-2.5 0-4.5 2-4.5 4.5v0.8c0 2.5 2 4.5 4.5 4.5s4.5-2 4.5-4.5v-0.8c0-2.5-2-4.5-4.5-4.5zM927.5 484.9H915c-4 0-7.2 3.2-7.2 7.2v2.5c0 4 3.2 7.2 7.2 7.2h12.5c4 0 7.2-3.2 7.2-7.2v-2.5c-0.1-4-3.3-7.2-7.2-7.2zM915 496.8c-1.2 0-2.2-1-2.2-2.2v-2.5c0-1.2 1-2.2 2.2-2.2h12.5c1.2 0 2.2 1 2.2 2.2v2.5c0 1.2-1 2.2-2.2 2.2H915zM835.7 714.8a10 9.2 90 1 1 18.4 0 10 9.2 90 1 1-18.4 0Z"  horiz-adv-x="1024" />

    
    <glyph glyph-name="xuexiao" unicode="&#58893;" d="M307.682708 99.393495c-38.755519 0-70.148879 28.754095-70.14888 64.036898V401.10313c0 35.282803 31.532268 64.036898 70.14888 64.036898s70.148879-28.754095 70.148879-64.036898v-237.811646c0.138909-35.282803-31.39336-63.897989-70.148879-63.897989z m0 352.133483c-31.254451 0-56.535829-22.642113-56.53583-50.423848v-237.811646c0-27.781734 25.420287-50.284939 56.53583-50.284939 31.115542 0 56.535829 22.642113 56.535829 50.284939V401.10313c0 27.781734-25.281378 50.423848-56.535829 50.423848zM551.467426 99.393495c-38.755519 0-70.148879 28.754095-70.148879 64.036898V401.10313c0 35.282803 31.532268 64.036898 70.148879 64.036898s70.148879-28.754095 70.148879-64.036898v-237.811646c0.138909-35.282803-31.39336-63.897989-70.148879-63.897989z m0 352.133483c-31.254451 0-56.535829-22.642113-56.535829-50.423848v-237.811646c0-27.781734 25.420287-50.284939 56.535829-50.284939s56.535829 22.642113 56.53583 50.284939V401.10313c0 27.781734-25.281378 50.423848-56.53583 50.423848zM795.252145 99.393495c-38.755519 0-70.148879 28.754095-70.148879 64.036898V401.10313c0 35.282803 31.532268 64.036898 70.148879 64.036898 38.755519 0 70.148879-28.754095 70.148879-64.036898v-237.811646c0-35.282803-31.39336-63.897989-70.148879-63.897989z m0 352.133483c-31.254451 0-56.535829-22.642113-56.535829-50.423848v-237.811646c0-27.781734 25.420287-50.284939 56.535829-50.284939 31.115542 0 56.535829 22.642113 56.535829 50.284939V401.10313c0 27.781734-25.281378 50.423848-56.535829 50.423848zM969.443619 615.717028l-304.209991 247.257435c-53.618747 44.034049-144.187201 44.034049-201.695391 0L136.408316 612.38322l0.416726-0.555635c-12.085054-10.41815-19.725031-25.837013-19.725032-43.061688 0-31.39336 25.559196-56.813647 56.813647-56.813647h763.580968c31.39336 0 56.813647 25.559196 56.813646 56.813647 0 19.586123-9.862516 36.810798-24.864652 46.951131zM474.650931 848.527961c51.2573 39.172245 131.546512 39.311154 179.192186 0.416726l274.622444-223.365143H183.498355L474.650931 848.527961z m462.704785-318.378675H173.913657c-21.253027 0-38.616611 17.363584-38.616611 38.616611s17.363584 38.616611 38.616611 38.616611h763.580968c7.778886 0 15.141045-2.361447 21.253027-6.389799l3.611625-2.917082 0.138909 0.138908c8.33452-7.084342 13.61305-17.641401 13.613049-29.448638 0-21.253027-17.363584-38.616611-38.755519-38.616611zM891.654763-128H202.112117c-45.145318 0-81.817208 36.671889-81.817207 81.817208v24.725743c0 45.145318 36.671889 81.817208 81.817207 81.817208h689.542646c45.145318 0 81.817208-36.671889 81.817208-81.817208v-24.725743c0.138909-45.00641-36.671889-81.817208-81.817208-81.817208zM202.112117 42.302031c-35.143894 0-63.620172-28.615186-63.620171-63.620171v-24.725744c0-35.143894 28.615186-63.620172 63.620171-63.620171h689.542646c35.143894 0 63.620172 28.615186 63.620172 63.620171v24.725744c0 35.143894-28.615186 63.620172-63.620172 63.620171H202.112117zM927.909926 625.440635L666.761624 841.304711c-41.81151 34.449351-104.181504 35.838437-147.659918 3.05599L220.170245 625.440635M955.830569-53.683861c0-32.226812-31.254451-58.202733-69.732153-58.202733H225.170957c-38.477702 0-69.732153 26.11483-69.732153 58.202733v19.86394c0 32.226812 31.254451 58.202733 69.732153 58.202734h660.927459c38.477702 0 69.732153-26.11483 69.732153-58.202734v-19.86394zM364.635263 151.20643c0-23.475566-22.503205-42.644962-50.423848-42.644962-27.781734 0-50.423848 19.030488-50.423848 42.644962V387.212263c0 23.475566 22.503205 42.644962 50.423848 42.644962 27.781734 0 50.423848-19.030488 50.423848-42.644962v-236.005833zM607.864347 156.068233c0-23.197748-22.503205-41.81151-50.14603-41.81151-27.781734 0-50.14603 18.752671-50.146031 41.81151V387.906806c0 23.197748 22.503205 41.81151 50.146031 41.811511 27.642826 0 50.14603-18.752671 50.14603-41.811511v-231.838573zM854.566148 151.345339c0-23.614474-23.058839-42.783871-51.674026-42.783871s-51.674026 19.169397-51.674026 42.783871V388.184624c0 23.614474 23.058839 42.783871 51.674026 42.783871 28.476278 0 51.674026-19.169397 51.674026-42.783871v-236.839285zM976.250144 563.765185c0-17.919219-16.252315-32.36572-36.255163-32.365721H197.250314c-20.002849 0-36.255163 14.446502-36.255164 32.365721s16.252315 32.36572 36.255164 32.36572h742.744667c20.002849 0.138909 36.255163-14.446502 36.255163-32.36572zM758.16353 624.885h170.857666l-261.148303 215.864076c-26.392648 21.808661-61.258724 30.28209-94.180079 25.281378 88.90155-53.202021 155.85553-139.186489 184.470716-241.145454z"  horiz-adv-x="1221" />

    
    <glyph glyph-name="mima" unicode="&#59809;" d="M837.7 450h-89.2V604.8C748.5 730.2 651.7 832 532.2 832h-40.5c-119.4 0-216.2-101.8-216.2-227.2V450h-89.2c-23.9 0-43.2-20.3-43.2-45.5v-423.1c0-25.1 19.3-45.4 43.2-45.4h651.4c23.9 0 43.3 20.4 43.3 45.4V404.5c-0.1 25.2-19.4 45.5-43.3 45.5zM512 15.5c-45.1 0-81.8 38.4-81.8 85.9 0 30.2 14.8 56.6 37.2 71.9V321.8c0 23.8 19.3 43 43.3 43 23.9 0 43.2-19.2 43.2-43v-146.7c23.9-15 39.9-42.4 39.9-73.7 0-47.5-36.7-85.9-81.8-85.9zM679.1 450H352.5V587.8c0 84.3 66.9 152.7 149.3 152.7h28c82.4 0 149.3-68.4 149.3-152.7V450z"  horiz-adv-x="1024" />

    
    <glyph glyph-name="yonghu" unicode="&#59205;" d="M599.944-63H424.056C258.826-63 128-63 128 26.593v18.644C128 217.173 260.765 357 424.056 357h175.888C763.235 357 896 217.173 896 45.237v-18.644C896-63 758.874-63 599.944-63zM512 385c-123.57 0-224 100.495-224 224S388.43 833 512 833s224-100.495 224-224-100.43-224-224-224z"  horiz-adv-x="1024" />

    
    <glyph glyph-name="shouji" unicode="&#58919;" d="M739.2 896H284.8C243.2 896 214.4 864 214.4 825.6v-883.2c0-38.4 32-70.4 70.4-70.4h457.6c38.4 0 70.4 32 70.4 70.4V825.6C809.6 864 780.8 896 739.2 896zM512-83.2c-25.6 0-44.8 19.2-44.8 44.8 0 25.6 19.2 44.8 44.8 44.8s44.8-19.2 44.8-44.8c0-25.6-19.2-44.8-44.8-44.8z m224 124.8H288V793.6h448v-752z"  horiz-adv-x="1024" />

    


  </font>
</defs>
</svg>
